<svg xmlns="http://www.w3.org/2000/svg" viewBox="340 140 160 160" width="100%" height="100%">
  <path d="M 1014 10 v 1 h -10 Z M 1014 10 v 1 h -10 Z M 1014 10 v 1 h -10 Z M 1014 10 v 1 h -10 Z M 1015 9 v 1 h -9 Z M 1016 8 v 1 h -8 Z M 1018 6 v 1 h -6 Z M 365 83 h 19 v 1 h -19 Z M 362 84 h 26 v 1 h -26 Z M 360 85 h 32 v 1 h -32 Z M 358 86 h 36 v 1 h -36 Z M 356 87 h 41 v 1 h -41 Z M 355 88 h 18 v 1 h -18 Z M 376 88 h 23 v 1 h -23 Z M 354 89 h 12 v 1 h -12 Z M 384 89 h 16 v 1 h -16 Z M 352 90 h 11 v 1 h -11 Z M 388 90 h 14 v 1 h -14 Z M 351 91 h 10 v 1 h -10 Z M 391 91 h 12 v 1 h -12 Z M 349 92 h 11 v 1 h -11 Z M 394 92 h 11 v 1 h -11 Z M 347 93 h 11 v 1 h -11 Z M 395 93 h 11 v 1 h -11 Z M 345 94 h 12 v 1 h -12 Z M 397 94 h 10 v 1 h -10 Z M 343 95 h 12 v 1 h -12 Z M 399 95 h 9 v 1 h -9 Z M 339 96 h 15 v 1 h -15 Z M 400 96 h 9 v 1 h -9 Z M 332 97 h 20 v 1 h -20 Z M 402 97 h 8 v 1 h -8 Z M 325 98 h 25 v 1 h -25 Z M 403 98 h 8 v 1 h -8 Z M 320 99 h 29 v 1 h -29 Z M 404 99 h 7 v 1 h -7 Z M 315 100 h 32 v 1 h -32 Z M 405 100 h 7 v 1 h -7 Z M 310 101 h 34 v 1 h -34 Z M 405 101 h 8 v 1 h -8 Z M 307 102 h 33 v 1 h -33 Z M 406 102 h 7 v 1 h -7 Z M 303 103 h 28 v 1 h -28 Z M 407 103 h 7 v 1 h -7 Z M 300 104 h 26 v 1 h -26 Z M 408 104 h 7 v 1 h -7 Z M 297 105 h 22 v 1 h -22 Z M 408 105 h 8 v 1 h -8 Z M 295 106 h 20 v 1 h -20 Z M 409 106 h 9 v 1 h -9 Z M 291 107 h 19 v 1 h -19 Z M 409 107 h 11 v 1 h -11 Z M 246 108 h 24 v 1 h -24 Z M 287 108 h 20 v 1 h -20 Z M 410 108 h 12 v 1 h -12 Z M 237 109 h 67 v 1 h -67 Z M 411 109 h 14 v 1 h -14 Z M 231 110 h 70 v 1 h -70 Z M 413 110 h 14 v 1 h -14 Z M 227 111 h 71 v 1 h -71 Z M 415 111 h 14 v 1 h -14 Z M 223 112 h 72 v 1 h -72 Z M 417 112 h 14 v 1 h -14 Z M 221 113 h 71 v 1 h -71 Z M 419 113 h 14 v 1 h -14 Z M 218 114 h 26 v 1 h -26 Z M 272 114 h 14 v 1 h -14 Z M 422 114 h 12 v 1 h -12 Z M 217 115 h 20 v 1 h -20 Z M 424 115 h 11 v 1 h -11 Z M 215 116 h 16 v 1 h -16 Z M 426 116 h 10 v 1 h -10 Z M 213 117 h 14 v 1 h -14 Z M 428 117 h 9 v 1 h -9 Z M 211 118 h 13 v 1 h -13 Z M 430 118 h 8 v 1 h -8 Z M 210 119 h 12 v 1 h -12 Z M 431 119 h 7 v 1 h -7 Z M 208 120 h 12 v 1 h -12 Z M 432 120 h 7 v 1 h -7 Z M 207 121 h 11 v 1 h -11 Z M 432 121 h 7 v 1 h -7 Z M 206 122 h 10 v 1 h -10 Z M 432 122 h 7 v 1 h -7 Z M 205 123 h 10 v 1 h -10 Z M 431 123 h 8 v 1 h -8 Z M 203 124 h 10 v 1 h -10 Z M 430 124 h 8 v 1 h -8 Z M 202 125 h 10 v 1 h -10 Z M 421 125 h 17 v 1 h -17 Z M 201 126 h 9 v 1 h -9 Z M 412 126 h 25 v 1 h -25 Z M 200 127 h 9 v 1 h -9 Z M 408 127 h 28 v 1 h -28 Z M 199 128 h 9 v 1 h -9 Z M 406 128 h 28 v 1 h -28 Z M 198 129 h 9 v 1 h -9 Z M 405 129 h 28 v 1 h -28 Z M 197 130 h 9 v 1 h -9 Z M 404 130 h 26 v 1 h -26 Z M 196 131 h 9 v 1 h -9 Z M 404 131 h 20 v 1 h -20 Z M 195 132 h 9 v 1 h -9 Z M 404 132 h 8 v 1 h -8 Z M 195 133 h 8 v 1 h -8 Z M 404 133 h 6 v 1 h -6 Z M 194 134 h 8 v 1 h -8 Z M 403 134 h 6 v 1 h -6 Z M 193 135 h 8 v 1 h -8 Z M 403 135 h 6 v 1 h -6 Z M 192 136 h 8 v 1 h -8 Z M 403 136 h 6 v 1 h -6 Z M 191 137 h 8 v 1 h -8 Z M 403 137 h 5 v 1 h -5 Z M 190 138 h 8 v 1 h -8 Z M 402 138 h 6 v 1 h -6 Z M 190 139 h 7 v 1 h -7 Z M 402 139 h 6 v 1 h -6 Z M 189 140 h 7 v 1 h -7 Z M 402 140 h 6 v 1 h -6 Z M 188 141 h 8 v 1 h -8 Z M 402 141 h 6 v 1 h -6 Z M 188 142 h 7 v 1 h -7 Z M 402 142 h 6 v 1 h -6 Z M 187 143 h 7 v 1 h -7 Z M 402 143 h 6 v 1 h -6 Z M 186 144 h 7 v 1 h -7 Z M 401 144 h 7 v 1 h -7 Z M 186 145 h 7 v 1 h -7 Z M 401 145 h 6 v 1 h -6 Z M 185 146 h 7 v 1 h -7 Z M 400 146 h 7 v 1 h -7 Z M 184 147 h 7 v 1 h -7 Z M 400 147 h 6 v 1 h -6 Z M 184 148 h 7 v 1 h -7 Z M 399 148 h 7 v 1 h -7 Z M 183 149 h 7 v 1 h -7 Z M 397 149 h 9 v 1 h -9 Z M 183 150 h 6 v 1 h -6 Z M 396 150 h 9 v 1 h -9 Z M 182 151 h 7 v 1 h -7 Z M 394 151 h 10 v 1 h -10 Z M 181 152 h 7 v 1 h -7 Z M 393 152 h 10 v 1 h -10 Z M 181 153 h 6 v 1 h -6 Z M 392 153 h 10 v 1 h -10 Z M 180 154 h 7 v 1 h -7 Z M 351 154 h 3 v 1 h -3 Z M 391 154 h 10 v 1 h -10 Z M 180 155 h 6 v 1 h -6 Z M 350 155 h 6 v 1 h -6 Z M 390 155 h 9 v 1 h -9 Z M 179 156 h 7 v 1 h -7 Z M 349 156 h 7 v 1 h -7 Z M 389 156 h 9 v 1 h -9 Z M 179 157 h 6 v 1 h -6 Z M 349 157 h 8 v 1 h -8 Z M 388 157 h 8 v 1 h -8 Z M 178 158 h 7 v 1 h -7 Z M 349 158 h 9 v 1 h -9 Z M 388 158 h 7 v 1 h -7 Z M 178 159 h 6 v 1 h -6 Z M 348 159 h 10 v 1 h -10 Z M 387 159 h 7 v 1 h -7 Z M 177 160 h 7 v 1 h -7 Z M 347 160 h 12 v 1 h -12 Z M 387 160 h 6 v 1 h -6 Z M 177 161 h 6 v 1 h -6 Z M 346 161 h 14 v 1 h -14 Z M 386 161 h 7 v 1 h -7 Z M 176 162 h 7 v 1 h -7 Z M 344 162 h 16 v 1 h -16 Z M 386 162 h 6 v 1 h -6 Z M 176 163 h 6 v 1 h -6 Z M 342 163 h 19 v 1 h -19 Z M 385 163 h 7 v 1 h -7 Z M 175 164 h 7 v 1 h -7 Z M 341 164 h 10 v 1 h -10 Z M 355 164 h 6 v 1 h -6 Z M 385 164 h 6 v 1 h -6 Z M 175 165 h 6 v 1 h -6 Z M 339 165 h 11 v 1 h -11 Z M 355 165 h 7 v 1 h -7 Z M 384 165 h 7 v 1 h -7 Z M 175 166 h 6 v 1 h -6 Z M 338 166 h 10 v 1 h -10 Z M 356 166 h 7 v 1 h -7 Z M 384 166 h 7 v 1 h -7 Z M 174 167 h 7 v 1 h -7 Z M 337 167 h 10 v 1 h -10 Z M 356 167 h 8 v 1 h -8 Z M 383 167 h 7 v 1 h -7 Z M 174 168 h 6 v 1 h -6 Z M 336 168 h 9 v 1 h -9 Z M 357 168 h 8 v 1 h -8 Z M 383 168 h 7 v 1 h -7 Z M 174 169 h 6 v 1 h -6 Z M 336 169 h 8 v 1 h -8 Z M 358 169 h 9 v 1 h -9 Z M 381 169 h 8 v 1 h -8 Z M 174 170 h 6 v 1 h -6 Z M 335 170 h 9 v 1 h -9 Z M 359 170 h 10 v 1 h -10 Z M 379 170 h 10 v 1 h -10 Z M 173 171 h 6 v 1 h -6 Z M 335 171 h 10 v 1 h -10 Z M 360 171 h 28 v 1 h -28 Z M 173 172 h 6 v 1 h -6 Z M 335 172 h 12 v 1 h -12 Z M 360 172 h 27 v 1 h -27 Z M 173 173 h 6 v 1 h -6 Z M 336 173 h 14 v 1 h -14 Z M 362 173 h 24 v 1 h -24 Z M 173 174 h 6 v 1 h -6 Z M 337 174 h 14 v 1 h -14 Z M 363 174 h 22 v 1 h -22 Z M 80 175 h 14 v 1 h -14 Z M 172 175 h 6 v 1 h -6 Z M 340 175 h 13 v 1 h -13 Z M 366 175 h 16 v 1 h -16 Z M 78 176 h 19 v 1 h -19 Z M 172 176 h 6 v 1 h -6 Z M 342 176 h 12 v 1 h -12 Z M 369 176 h 10 v 1 h -10 Z M 76 177 h 24 v 1 h -24 Z M 172 177 h 6 v 1 h -6 Z M 344 177 h 12 v 1 h -12 Z M 75 178 h 27 v 1 h -27 Z M 172 178 h 6 v 1 h -6 Z M 346 178 h 12 v 1 h -12 Z M 74 179 h 29 v 1 h -29 Z M 172 179 h 6 v 1 h -6 Z M 348 179 h 11 v 1 h -11 Z M 74 180 h 31 v 1 h -31 Z M 172 180 h 6 v 1 h -6 Z M 350 180 h 11 v 1 h -11 Z M 74 181 h 7 v 1 h -7 Z M 93 181 h 13 v 1 h -13 Z M 172 181 h 6 v 1 h -6 Z M 352 181 h 10 v 1 h -10 Z M 74 182 h 8 v 1 h -8 Z M 97 182 h 10 v 1 h -10 Z M 172 182 h 6 v 1 h -6 Z M 353 182 h 11 v 1 h -11 Z M 74 183 h 9 v 1 h -9 Z M 99 183 h 9 v 1 h -9 Z M 172 183 h 5 v 1 h -5 Z M 355 183 h 10 v 1 h -10 Z M 75 184 h 15 v 1 h -15 Z M 100 184 h 9 v 1 h -9 Z M 171 184 h 6 v 1 h -6 Z M 356 184 h 11 v 1 h -11 Z M 75 185 h 18 v 1 h -18 Z M 102 185 h 9 v 1 h -9 Z M 171 185 h 6 v 1 h -6 Z M 358 185 h 10 v 1 h -10 Z M 76 186 h 19 v 1 h -19 Z M 103 186 h 9 v 1 h -9 Z M 171 186 h 6 v 1 h -6 Z M 359 186 h 10 v 1 h -10 Z M 77 187 h 19 v 1 h -19 Z M 104 187 h 9 v 1 h -9 Z M 171 187 h 6 v 1 h -6 Z M 361 187 h 10 v 1 h -10 Z M 80 188 h 17 v 1 h -17 Z M 105 188 h 9 v 1 h -9 Z M 171 188 h 6 v 1 h -6 Z M 362 188 h 10 v 1 h -10 Z M 83 189 h 15 v 1 h -15 Z M 106 189 h 9 v 1 h -9 Z M 171 189 h 6 v 1 h -6 Z M 363 189 h 10 v 1 h -10 Z M 89 190 h 10 v 1 h -10 Z M 107 190 h 9 v 1 h -9 Z M 171 190 h 6 v 1 h -6 Z M 365 190 h 10 v 1 h -10 Z M 91 191 h 9 v 1 h -9 Z M 109 191 h 8 v 1 h -8 Z M 171 191 h 6 v 1 h -6 Z M 366 191 h 10 v 1 h -10 Z M 92 192 h 9 v 1 h -9 Z M 110 192 h 9 v 1 h -9 Z M 171 192 h 6 v 1 h -6 Z M 368 192 h 9 v 1 h -9 Z M 93 193 h 9 v 1 h -9 Z M 111 193 h 9 v 1 h -9 Z M 171 193 h 6 v 1 h -6 Z M 369 193 h 10 v 1 h -10 Z M 95 194 h 8 v 1 h -8 Z M 112 194 h 9 v 1 h -9 Z M 171 194 h 6 v 1 h -6 Z M 370 194 h 10 v 1 h -10 Z M 96 195 h 8 v 1 h -8 Z M 113 195 h 9 v 1 h -9 Z M 171 195 h 6 v 1 h -6 Z M 372 195 h 9 v 1 h -9 Z M 97 196 h 8 v 1 h -8 Z M 114 196 h 9 v 1 h -9 Z M 171 196 h 6 v 1 h -6 Z M 373 196 h 10 v 1 h -10 Z M 98 197 h 8 v 1 h -8 Z M 115 197 h 10 v 1 h -10 Z M 171 197 h 6 v 1 h -6 Z M 374 197 h 10 v 1 h -10 Z M 99 198 h 8 v 1 h -8 Z M 117 198 h 9 v 1 h -9 Z M 171 198 h 6 v 1 h -6 Z M 376 198 h 9 v 1 h -9 Z M 100 199 h 8 v 1 h -8 Z M 118 199 h 9 v 1 h -9 Z M 171 199 h 6 v 1 h -6 Z M 377 199 h 9 v 1 h -9 Z M 101 200 h 8 v 1 h -8 Z M 119 200 h 9 v 1 h -9 Z M 171 200 h 6 v 1 h -6 Z M 378 200 h 9 v 1 h -9 Z M 102 201 h 8 v 1 h -8 Z M 120 201 h 9 v 1 h -9 Z M 171 201 h 6 v 1 h -6 Z M 323 201 h 12 v 1 h -12 Z M 379 201 h 10 v 1 h -10 Z M 103 202 h 8 v 1 h -8 Z M 121 202 h 9 v 1 h -9 Z M 171 202 h 6 v 1 h -6 Z M 316 202 h 25 v 1 h -25 Z M 381 202 h 9 v 1 h -9 Z M 104 203 h 8 v 1 h -8 Z M 122 203 h 10 v 1 h -10 Z M 171 203 h 6 v 1 h -6 Z M 311 203 h 34 v 1 h -34 Z M 382 203 h 9 v 1 h -9 Z M 105 204 h 9 v 1 h -9 Z M 124 204 h 9 v 1 h -9 Z M 171 204 h 6 v 1 h -6 Z M 310 204 h 39 v 1 h -39 Z M 383 204 h 9 v 1 h -9 Z M 106 205 h 9 v 1 h -9 Z M 125 205 h 9 v 1 h -9 Z M 171 205 h 6 v 1 h -6 Z M 281 205 h 4 v 1 h -4 Z M 310 205 h 41 v 1 h -41 Z M 384 205 h 9 v 1 h -9 Z M 107 206 h 9 v 1 h -9 Z M 126 206 h 9 v 1 h -9 Z M 171 206 h 6 v 1 h -6 Z M 280 206 h 6 v 1 h -6 Z M 309 206 h 46 v 1 h -46 Z M 385 206 h 8 v 1 h -8 Z M 108 207 h 9 v 1 h -9 Z M 127 207 h 9 v 1 h -9 Z M 171 207 h 6 v 1 h -6 Z M 280 207 h 7 v 1 h -7 Z M 309 207 h 15 v 1 h -15 Z M 333 207 h 24 v 1 h -24 Z M 386 207 h 8 v 1 h -8 Z M 109 208 h 9 v 1 h -9 Z M 128 208 h 10 v 1 h -10 Z M 171 208 h 6 v 1 h -6 Z M 279 208 h 8 v 1 h -8 Z M 309 208 h 8 v 1 h -8 Z M 341 208 h 18 v 1 h -18 Z M 387 208 h 8 v 1 h -8 Z M 110 209 h 9 v 1 h -9 Z M 130 209 h 9 v 1 h -9 Z M 171 209 h 6 v 1 h -6 Z M 279 209 h 9 v 1 h -9 Z M 309 209 h 7 v 1 h -7 Z M 345 209 h 15 v 1 h -15 Z M 388 209 h 8 v 1 h -8 Z M 112 210 h 8 v 1 h -8 Z M 131 210 h 9 v 1 h -9 Z M 171 210 h 6 v 1 h -6 Z M 278 210 h 11 v 1 h -11 Z M 310 210 h 6 v 1 h -6 Z M 348 210 h 13 v 1 h -13 Z M 389 210 h 8 v 1 h -8 Z M 113 211 h 8 v 1 h -8 Z M 132 211 h 10 v 1 h -10 Z M 171 211 h 6 v 1 h -6 Z M 277 211 h 12 v 1 h -12 Z M 310 211 h 6 v 1 h -6 Z M 351 211 h 11 v 1 h -11 Z M 390 211 h 8 v 1 h -8 Z M 114 212 h 9 v 1 h -9 Z M 133 212 h 10 v 1 h -10 Z M 171 212 h 6 v 1 h -6 Z M 276 212 h 14 v 1 h -14 Z M 310 212 h 6 v 1 h -6 Z M 354 212 h 9 v 1 h -9 Z M 391 212 h 7 v 1 h -7 Z M 115 213 h 9 v 1 h -9 Z M 135 213 h 9 v 1 h -9 Z M 171 213 h 6 v 1 h -6 Z M 275 213 h 16 v 1 h -16 Z M 310 213 h 6 v 1 h -6 Z M 355 213 h 9 v 1 h -9 Z M 392 213 h 7 v 1 h -7 Z M 116 214 h 9 v 1 h -9 Z M 136 214 h 10 v 1 h -10 Z M 171 214 h 5 v 1 h -5 Z M 274 214 h 8 v 1 h -8 Z M 284 214 h 7 v 1 h -7 Z M 310 214 h 6 v 1 h -6 Z M 357 214 h 8 v 1 h -8 Z M 393 214 h 7 v 1 h -7 Z M 117 215 h 9 v 1 h -9 Z M 137 215 h 10 v 1 h -10 Z M 171 215 h 5 v 1 h -5 Z M 273 215 h 8 v 1 h -8 Z M 285 215 h 7 v 1 h -7 Z M 310 215 h 6 v 1 h -6 Z M 358 215 h 8 v 1 h -8 Z M 393 215 h 8 v 1 h -8 Z M 118 216 h 9 v 1 h -9 Z M 139 216 h 10 v 1 h -10 Z M 170 216 h 6 v 1 h -6 Z M 271 216 h 9 v 1 h -9 Z M 286 216 h 6 v 1 h -6 Z M 310 216 h 6 v 1 h -6 Z M 359 216 h 8 v 1 h -8 Z M 394 216 h 7 v 1 h -7 Z M 119 217 h 9 v 1 h -9 Z M 140 217 h 10 v 1 h -10 Z M 170 217 h 6 v 1 h -6 Z M 270 217 h 9 v 1 h -9 Z M 286 217 h 7 v 1 h -7 Z M 310 217 h 6 v 1 h -6 Z M 360 217 h 8 v 1 h -8 Z M 395 217 h 7 v 1 h -7 Z M 120 218 h 9 v 1 h -9 Z M 141 218 h 10 v 1 h -10 Z M 170 218 h 6 v 1 h -6 Z M 269 218 h 9 v 1 h -9 Z M 287 218 h 6 v 1 h -6 Z M 311 218 h 6 v 1 h -6 Z M 361 218 h 8 v 1 h -8 Z M 395 218 h 7 v 1 h -7 Z M 122 219 h 9 v 1 h -9 Z M 143 219 h 10 v 1 h -10 Z M 170 219 h 6 v 1 h -6 Z M 267 219 h 10 v 1 h -10 Z M 287 219 h 7 v 1 h -7 Z M 311 219 h 6 v 1 h -6 Z M 362 219 h 8 v 1 h -8 Z M 396 219 h 7 v 1 h -7 Z M 123 220 h 9 v 1 h -9 Z M 144 220 h 10 v 1 h -10 Z M 170 220 h 6 v 1 h -6 Z M 266 220 h 10 v 1 h -10 Z M 288 220 h 6 v 1 h -6 Z M 311 220 h 6 v 1 h -6 Z M 363 220 h 8 v 1 h -8 Z M 397 220 h 6 v 1 h -6 Z M 124 221 h 9 v 1 h -9 Z M 146 221 h 10 v 1 h -10 Z M 170 221 h 6 v 1 h -6 Z M 264 221 h 11 v 1 h -11 Z M 288 221 h 6 v 1 h -6 Z M 311 221 h 6 v 1 h -6 Z M 364 221 h 8 v 1 h -8 Z M 397 221 h 6 v 1 h -6 Z M 125 222 h 9 v 1 h -9 Z M 147 222 h 11 v 1 h -11 Z M 170 222 h 6 v 1 h -6 Z M 262 222 h 11 v 1 h -11 Z M 288 222 h 7 v 1 h -7 Z M 312 222 h 6 v 1 h -6 Z M 365 222 h 8 v 1 h -8 Z M 397 222 h 7 v 1 h -7 Z M 126 223 h 9 v 1 h -9 Z M 149 223 h 11 v 1 h -11 Z M 170 223 h 6 v 1 h -6 Z M 260 223 h 12 v 1 h -12 Z M 289 223 h 6 v 1 h -6 Z M 312 223 h 6 v 1 h -6 Z M 366 223 h 8 v 1 h -8 Z M 398 223 h 6 v 1 h -6 Z M 127 224 h 10 v 1 h -10 Z M 150 224 h 11 v 1 h -11 Z M 170 224 h 6 v 1 h -6 Z M 259 224 h 11 v 1 h -11 Z M 289 224 h 7 v 1 h -7 Z M 312 224 h 6 v 1 h -6 Z M 367 224 h 8 v 1 h -8 Z M 398 224 h 6 v 1 h -6 Z M 129 225 h 9 v 1 h -9 Z M 152 225 h 12 v 1 h -12 Z M 170 225 h 6 v 1 h -6 Z M 257 225 h 12 v 1 h -12 Z M 290 225 h 6 v 1 h -6 Z M 312 225 h 6 v 1 h -6 Z M 368 225 h 9 v 1 h -9 Z M 398 225 h 6 v 1 h -6 Z M 130 226 h 9 v 1 h -9 Z M 153 226 h 13 v 1 h -13 Z M 170 226 h 6 v 1 h -6 Z M 255 226 h 12 v 1 h -12 Z M 290 226 h 6 v 1 h -6 Z M 312 226 h 6 v 1 h -6 Z M 369 226 h 9 v 1 h -9 Z M 399 226 h 5 v 1 h -5 Z M 131 227 h 10 v 1 h -10 Z M 155 227 h 21 v 1 h -21 Z M 253 227 h 12 v 1 h -12 Z M 290 227 h 6 v 1 h -6 Z M 312 227 h 6 v 1 h -6 Z M 370 227 h 9 v 1 h -9 Z M 399 227 h 6 v 1 h -6 Z M 132 228 h 10 v 1 h -10 Z M 157 228 h 19 v 1 h -19 Z M 251 228 h 13 v 1 h -13 Z M 291 228 h 6 v 1 h -6 Z M 313 228 h 6 v 1 h -6 Z M 371 228 h 10 v 1 h -10 Z M 399 228 h 6 v 1 h -6 Z M 134 229 h 9 v 1 h -9 Z M 158 229 h 18 v 1 h -18 Z M 249 229 h 13 v 1 h -13 Z M 291 229 h 6 v 1 h -6 Z M 313 229 h 6 v 1 h -6 Z M 372 229 h 10 v 1 h -10 Z M 399 229 h 6 v 1 h -6 Z M 135 230 h 10 v 1 h -10 Z M 161 230 h 15 v 1 h -15 Z M 247 230 h 13 v 1 h -13 Z M 291 230 h 7 v 1 h -7 Z M 313 230 h 6 v 1 h -6 Z M 373 230 h 12 v 1 h -12 Z M 398 230 h 6 v 1 h -6 Z M 136 231 h 10 v 1 h -10 Z M 163 231 h 12 v 1 h -12 Z M 246 231 h 12 v 1 h -12 Z M 292 231 h 6 v 1 h -6 Z M 313 231 h 6 v 1 h -6 Z M 375 231 h 14 v 1 h -14 Z M 397 231 h 7 v 1 h -7 Z M 137 232 h 10 v 1 h -10 Z M 165 232 h 10 v 1 h -10 Z M 244 232 h 12 v 1 h -12 Z M 292 232 h 6 v 1 h -6 Z M 313 232 h 6 v 1 h -6 Z M 376 232 h 28 v 1 h -28 Z M 139 233 h 10 v 1 h -10 Z M 167 233 h 7 v 1 h -7 Z M 242 233 h 12 v 1 h -12 Z M 292 233 h 6 v 1 h -6 Z M 314 233 h 6 v 1 h -6 Z M 378 233 h 25 v 1 h -25 Z M 140 234 h 10 v 1 h -10 Z M 240 234 h 12 v 1 h -12 Z M 292 234 h 7 v 1 h -7 Z M 314 234 h 6 v 1 h -6 Z M 379 234 h 24 v 1 h -24 Z M 141 235 h 11 v 1 h -11 Z M 239 235 h 12 v 1 h -12 Z M 293 235 h 6 v 1 h -6 Z M 314 235 h 6 v 1 h -6 Z M 381 235 h 21 v 1 h -21 Z M 143 236 h 10 v 1 h -10 Z M 237 236 h 12 v 1 h -12 Z M 293 236 h 6 v 1 h -6 Z M 314 236 h 6 v 1 h -6 Z M 385 236 h 16 v 1 h -16 Z M 144 237 h 10 v 1 h -10 Z M 236 237 h 11 v 1 h -11 Z M 293 237 h 6 v 1 h -6 Z M 314 237 h 6 v 1 h -6 Z M 390 237 h 8 v 1 h -8 Z M 146 238 h 10 v 1 h -10 Z M 235 238 h 11 v 1 h -11 Z M 294 238 h 6 v 1 h -6 Z M 314 238 h 6 v 1 h -6 Z M 147 239 h 11 v 1 h -11 Z M 234 239 h 13 v 1 h -13 Z M 294 239 h 6 v 1 h -6 Z M 314 239 h 7 v 1 h -7 Z M 148 240 h 11 v 1 h -11 Z M 234 240 h 17 v 1 h -17 Z M 294 240 h 6 v 1 h -6 Z M 315 240 h 6 v 1 h -6 Z M 409 240 h 9 v 1 h -9 Z M 150 241 h 11 v 1 h -11 Z M 234 241 h 21 v 1 h -21 Z M 295 241 h 6 v 1 h -6 Z M 315 241 h 6 v 1 h -6 Z M 405 241 h 16 v 1 h -16 Z M 151 242 h 11 v 1 h -11 Z M 235 242 h 22 v 1 h -22 Z M 295 242 h 6 v 1 h -6 Z M 315 242 h 6 v 1 h -6 Z M 403 242 h 19 v 1 h -19 Z M 153 243 h 11 v 1 h -11 Z M 237 243 h 22 v 1 h -22 Z M 295 243 h 6 v 1 h -6 Z M 315 243 h 6 v 1 h -6 Z M 399 243 h 26 v 1 h -26 Z M 154 244 h 12 v 1 h -12 Z M 240 244 h 20 v 1 h -20 Z M 295 244 h 6 v 1 h -6 Z M 315 244 h 6 v 1 h -6 Z M 398 244 h 28 v 1 h -28 Z M 156 245 h 12 v 1 h -12 Z M 246 245 h 15 v 1 h -15 Z M 296 245 h 6 v 1 h -6 Z M 315 245 h 6 v 1 h -6 Z M 397 245 h 30 v 1 h -30 Z M 157 246 h 13 v 1 h -13 Z M 250 246 h 12 v 1 h -12 Z M 296 246 h 6 v 1 h -6 Z M 315 246 h 6 v 1 h -6 Z M 396 246 h 20 v 1 h -20 Z M 417 246 h 11 v 1 h -11 Z M 159 247 h 14 v 1 h -14 Z M 254 247 h 9 v 1 h -9 Z M 296 247 h 6 v 1 h -6 Z M 315 247 h 6 v 1 h -6 Z M 394 247 h 21 v 1 h -21 Z M 420 247 h 9 v 1 h -9 Z M 161 248 h 15 v 1 h -15 Z M 256 248 h 8 v 1 h -8 Z M 296 248 h 7 v 1 h -7 Z M 315 248 h 6 v 1 h -6 Z M 392 248 h 24 v 1 h -24 Z M 421 248 h 9 v 1 h -9 Z M 163 249 h 15 v 1 h -15 Z M 257 249 h 7 v 1 h -7 Z M 297 249 h 6 v 1 h -6 Z M 315 249 h 6 v 1 h -6 Z M 390 249 h 27 v 1 h -27 Z M 423 249 h 8 v 1 h -8 Z M 165 250 h 15 v 1 h -15 Z M 258 250 h 6 v 1 h -6 Z M 297 250 h 6 v 1 h -6 Z M 315 250 h 6 v 1 h -6 Z M 389 250 h 29 v 1 h -29 Z M 424 250 h 8 v 1 h -8 Z M 167 251 h 15 v 1 h -15 Z M 258 251 h 7 v 1 h -7 Z M 297 251 h 6 v 1 h -6 Z M 315 251 h 7 v 1 h -7 Z M 388 251 h 30 v 1 h -30 Z M 425 251 h 7 v 1 h -7 Z M 170 252 h 13 v 1 h -13 Z M 259 252 h 6 v 1 h -6 Z M 297 252 h 7 v 1 h -7 Z M 315 252 h 13 v 1 h -13 Z M 387 252 h 17 v 1 h -17 Z M 408 252 h 11 v 1 h -11 Z M 426 252 h 7 v 1 h -7 Z M 172 253 h 11 v 1 h -11 Z M 259 253 h 6 v 1 h -6 Z M 298 253 h 6 v 1 h -6 Z M 316 253 h 19 v 1 h -19 Z M 387 253 h 16 v 1 h -16 Z M 410 253 h 10 v 1 h -10 Z M 426 253 h 7 v 1 h -7 Z M 175 254 h 9 v 1 h -9 Z M 259 254 h 6 v 1 h -6 Z M 298 254 h 6 v 1 h -6 Z M 316 254 h 21 v 1 h -21 Z M 386 254 h 16 v 1 h -16 Z M 412 254 h 9 v 1 h -9 Z M 427 254 h 7 v 1 h -7 Z M 177 255 h 7 v 1 h -7 Z M 259 255 h 6 v 1 h -6 Z M 298 255 h 7 v 1 h -7 Z M 317 255 h 21 v 1 h -21 Z M 386 255 h 16 v 1 h -16 Z M 413 255 h 9 v 1 h -9 Z M 428 255 h 6 v 1 h -6 Z M 178 256 h 7 v 1 h -7 Z M 259 256 h 6 v 1 h -6 Z M 299 256 h 6 v 1 h -6 Z M 318 256 h 20 v 1 h -20 Z M 385 256 h 17 v 1 h -17 Z M 414 256 h 9 v 1 h -9 Z M 428 256 h 7 v 1 h -7 Z M 178 257 h 7 v 1 h -7 Z M 243 257 h 5 v 1 h -5 Z M 259 257 h 6 v 1 h -6 Z M 299 257 h 6 v 1 h -6 Z M 319 257 h 20 v 1 h -20 Z M 385 257 h 18 v 1 h -18 Z M 414 257 h 9 v 1 h -9 Z M 429 257 h 6 v 1 h -6 Z M 178 258 h 7 v 1 h -7 Z M 242 258 h 10 v 1 h -10 Z M 259 258 h 6 v 1 h -6 Z M 299 258 h 7 v 1 h -7 Z M 327 258 h 13 v 1 h -13 Z M 385 258 h 19 v 1 h -19 Z M 414 258 h 10 v 1 h -10 Z M 429 258 h 7 v 1 h -7 Z M 177 259 h 9 v 1 h -9 Z M 242 259 h 23 v 1 h -23 Z M 300 259 h 6 v 1 h -6 Z M 333 259 h 7 v 1 h -7 Z M 385 259 h 21 v 1 h -21 Z M 414 259 h 11 v 1 h -11 Z M 430 259 h 6 v 1 h -6 Z M 177 260 h 11 v 1 h -11 Z M 242 260 h 22 v 1 h -22 Z M 300 260 h 6 v 1 h -6 Z M 334 260 h 7 v 1 h -7 Z M 384 260 h 22 v 1 h -22 Z M 414 260 h 11 v 1 h -11 Z M 430 260 h 6 v 1 h -6 Z M 178 261 h 12 v 1 h -12 Z M 243 261 h 21 v 1 h -21 Z M 301 261 h 6 v 1 h -6 Z M 334 261 h 7 v 1 h -7 Z M 384 261 h 23 v 1 h -23 Z M 414 261 h 12 v 1 h -12 Z M 430 261 h 7 v 1 h -7 Z M 450 261 h 10 v 1 h -10 Z M 178 262 h 15 v 1 h -15 Z M 243 262 h 20 v 1 h -20 Z M 301 262 h 6 v 1 h -6 Z M 335 262 h 6 v 1 h -6 Z M 384 262 h 24 v 1 h -24 Z M 414 262 h 12 v 1 h -12 Z M 431 262 h 6 v 1 h -6 Z M 449 262 h 14 v 1 h -14 Z M 180 263 h 16 v 1 h -16 Z M 244 263 h 18 v 1 h -18 Z M 301 263 h 6 v 1 h -6 Z M 335 263 h 6 v 1 h -6 Z M 384 263 h 24 v 1 h -24 Z M 414 263 h 12 v 1 h -12 Z M 431 263 h 6 v 1 h -6 Z M 448 263 h 16 v 1 h -16 Z M 182 264 h 17 v 1 h -17 Z M 245 264 h 16 v 1 h -16 Z M 301 264 h 7 v 1 h -7 Z M 336 264 h 6 v 1 h -6 Z M 385 264 h 8 v 1 h -8 Z M 395 264 h 13 v 1 h -13 Z M 414 264 h 13 v 1 h -13 Z M 431 264 h 6 v 1 h -6 Z M 447 264 h 18 v 1 h -18 Z M 184 265 h 19 v 1 h -19 Z M 245 265 h 7 v 1 h -7 Z M 302 265 h 6 v 1 h -6 Z M 335 265 h 7 v 1 h -7 Z M 385 265 h 8 v 1 h -8 Z M 395 265 h 12 v 1 h -12 Z M 414 265 h 13 v 1 h -13 Z M 432 265 h 5 v 1 h -5 Z M 447 265 h 19 v 1 h -19 Z M 489 265 h 12 v 1 h -12 Z M 187 266 h 20 v 1 h -20 Z M 245 266 h 7 v 1 h -7 Z M 302 266 h 7 v 1 h -7 Z M 335 266 h 6 v 1 h -6 Z M 385 266 h 8 v 1 h -8 Z M 396 266 h 9 v 1 h -9 Z M 413 266 h 15 v 1 h -15 Z M 432 266 h 5 v 1 h -5 Z M 447 266 h 20 v 1 h -20 Z M 482 266 h 21 v 1 h -21 Z M 190 267 h 21 v 1 h -21 Z M 245 267 h 7 v 1 h -7 Z M 303 267 h 6 v 1 h -6 Z M 334 267 h 7 v 1 h -7 Z M 385 267 h 8 v 1 h -8 Z M 396 267 h 8 v 1 h -8 Z M 413 267 h 15 v 1 h -15 Z M 432 267 h 6 v 1 h -6 Z M 448 267 h 8 v 1 h -8 Z M 459 267 h 8 v 1 h -8 Z M 475 267 h 29 v 1 h -29 Z M 192 268 h 24 v 1 h -24 Z M 244 268 h 7 v 1 h -7 Z M 303 268 h 7 v 1 h -7 Z M 333 268 h 8 v 1 h -8 Z M 386 268 h 8 v 1 h -8 Z M 396 268 h 8 v 1 h -8 Z M 413 268 h 15 v 1 h -15 Z M 432 268 h 6 v 1 h -6 Z M 448 268 h 8 v 1 h -8 Z M 460 268 h 45 v 1 h -45 Z M 196 269 h 25 v 1 h -25 Z M 243 269 h 8 v 1 h -8 Z M 303 269 h 7 v 1 h -7 Z M 331 269 h 9 v 1 h -9 Z M 386 269 h 9 v 1 h -9 Z M 397 269 h 8 v 1 h -8 Z M 412 269 h 16 v 1 h -16 Z M 432 269 h 6 v 1 h -6 Z M 449 269 h 57 v 1 h -57 Z M 195 270 h 32 v 1 h -32 Z M 242 270 h 8 v 1 h -8 Z M 304 270 h 8 v 1 h -8 Z M 327 270 h 13 v 1 h -13 Z M 386 270 h 9 v 1 h -9 Z M 397 270 h 8 v 1 h -8 Z M 411 270 h 17 v 1 h -17 Z M 431 270 h 5 v 1 h -5 Z M 450 270 h 57 v 1 h -57 Z M 6 271 h 224 v 1 h -224 Z M 238 271 h 11 v 1 h -11 Z M 304 271 h 35 v 1 h -35 Z M 386 271 h 20 v 1 h -20 Z M 411 271 h 17 v 1 h -17 Z M 431 271 h 6 v 1 h -6 Z M 451 271 h 37 v 1 h -37 Z M 500 524 v 1 h -524 Z M 6 272 h 225 v 1 h -225 Z M 237 272 h 12 v 1 h -12 Z M 305 272 h 33 v 1 h -33 Z M 387 272 h 20 v 1 h -20 Z M 410 272 h 18 v 1 h -18 Z M 431 272 h 6 v 1 h -6 Z M 452 272 h 29 v 1 h -29 Z M 500 524 v 1 h -524 Z M 6 273 h 225 v 1 h -225 Z M 236 273 h 12 v 1 h -12 Z M 305 273 h 31 v 1 h -31 Z M 387 273 h 41 v 1 h -41 Z M 431 273 h 6 v 1 h -6 Z M 453 273 h 22 v 1 h -22 Z M 501 523 v 1 h -523 Z M 6 274 h 225 v 1 h -225 Z M 237 274 h 9 v 1 h -9 Z M 306 274 h 28 v 1 h -28 Z M 387 274 h 41 v 1 h -41 Z M 430 274 h 7 v 1 h -7 Z M 455 274 h 11 v 1 h -11 Z M 502 522 v 1 h -522 Z M 6 275 h 225 v 1 h -225 Z M 237 275 h 8 v 1 h -8 Z M 308 275 h 24 v 1 h -24 Z M 388 275 h 39 v 1 h -39 Z M 430 275 h 6 v 1 h -6 Z M 456 275 h 9 v 1 h -9 Z M 503 521 v 1 h -521 Z M 7 276 h 222 v 1 h -222 Z M 238 276 h 3 v 1 h -3 Z M 313 276 h 13 v 1 h -13 Z M 389 276 h 38 v 1 h -38 Z M 429 276 h 7 v 1 h -7 Z M 455 276 h 9 v 1 h -9 Z M 505 519 v 1 h -519 Z M 389 277 h 37 v 1 h -37 Z M 428 277 h 8 v 1 h -8 Z M 454 277 h 9 v 1 h -9 Z M 390 278 h 35 v 1 h -35 Z M 427 278 h 8 v 1 h -8 Z M 452 278 h 10 v 1 h -10 Z M 391 279 h 34 v 1 h -34 Z M 426 279 h 8 v 1 h -8 Z M 450 279 h 11 v 1 h -11 Z M 392 280 h 42 v 1 h -42 Z M 448 280 h 12 v 1 h -12 Z M 393 281 h 40 v 1 h -40 Z M 445 281 h 13 v 1 h -13 Z M 394 282 h 38 v 1 h -38 Z M 438 282 h 19 v 1 h -19 Z M 395 283 h 12 v 1 h -12 Z M 410 283 h 45 v 1 h -45 Z M 396 284 h 13 v 1 h -13 Z M 411 284 h 42 v 1 h -42 Z M 397 285 h 55 v 1 h -55 Z M 398 286 h 51 v 1 h -51 Z M 400 287 h 43 v 1 h -43 Z M 402 288 h 37 v 1 h -37 Z M 404 289 h 30 v 1 h -30 Z M 407 290 h 22 v 1 h -22 Z" fill="var(--text-main, #000000)"/>
</svg>
