<?xml version="1.0" encoding="utf-8"?>
<!-- Generator: Adobe Illustrator 27.0.0, SVG Export Plug-In . SVG Version: 6.00 Build 0)  -->
<svg version="1.1" id="图层_2" xmlns="http://www.w3.org/2000/svg" xmlns:xlink="http://www.w3.org/1999/xlink" x="0px" y="0px"
	 viewBox="70 200 710 120"  xml:space="preserve">
<style type="text/css">
	.st0{fill:#E84A90;}
</style>
<path class="st0" d="M83.84,307.38c1.46,0.25,2.65-0.89,3.05-1.27c1.95-1.88,2.02-4.83,2.03-6.22c0.08-9.1,2.55-18.22,1.52-27.27
	c-0.02-0.2-0.12-0.96,0.25-1.21c0.24-0.16,0.58-0.04,0.7,0c1.59,0.56,19.33,11.07,22.1,12.67c3.83,2.21,6.48,2.88,11.78,4.22
	c1.7,0.43,4.91,1.17,5.94-0.22c0.5-0.67,0.46-1.81,0.44-2.03c-0.06-1.18-0.64-1.98-0.86-2.29c-1.05-1.43-2.69-1.9-3.33-2.1
	c-3.25-0.98-6.23-2.73-9.43-3.87c-11.34-4.05-15.04-8.24-17.78-9.14c-0.24-0.08-1.21-0.37-1.56-1.17c-0.03-0.08-0.2-0.48-0.1-0.95
	c0.2-0.91,1.24-1.4,1.49-1.52c2.29-1.16,3.6-3.66,5.4-5.49c3.23-3.28,7.93-8.07,12.76-13.9c1.31-1.58,2.07-2.56,3.52-4
	c2.68-2.65,3.56-2.72,6.19-5.37c1.13-1.14,2.83-3,4.03-5.71c1.24-2.8,0.64-3.54,0.48-3.71c-0.34-0.35-0.92-0.41-0.98-0.41
	c-0.75-0.07-1.37,0.36-1.68,0.6c-10.63,8.21-16.35,14.03-16.35,14.03c-3.53,3.59-2.82,2.59-5.32,5.21
	c-7.68,8.05-11.52,12.07-13.17,14.71c0,0-1.16,1.86-3.98,3.64c-0.6,0.38-1.25,0.72-1.69,0.45c-0.48-0.3-0.42-1.22-0.4-1.5
	c0.29-5.08-2.2-28.83-1.7-34.93c0.01-0.16,0.05-0.57-0.06-1.08c-0.21-0.96-0.79-1.6-1.46-2.32c-0.59-0.64-0.89-0.95-1.27-1.02
	c-0.84-0.14-1.62,0.69-1.97,1.08c-1.43,1.57-1.72,3.59-1.87,5.08c-0.32,3.03-0.48,4.55-0.22,6.57c0.92,7.28-1.07,15.81,0.57,56.67
	c0,0-0.43,2.61,0.51,11.17c0.02,0.17,0.08,0.66,0.38,1.17C82.24,306.68,83.02,307.24,83.84,307.38z"/>
<path class="st0" d="M147.33,307.57c1.09,0.15,2.05-0.81,2.57-1.33c1.94-1.94,2.32-4.49,2.48-5.52c0.53-3.5,1.64-6.94,1.81-10.48
	c0.4-8.17,1.47-7.2,2.38-17.71c0.63-7.22,0.13-7.77,0.76-21.71c0.52-11.51,0.99-14.09,1.81-14.19c0.98-0.12,2.05,3.38,3.14,6.38
	c3.36,9.2,7.58,15.19,14.19,24.57c9.48,13.46,10.85,10.39,15.14,18.19c0.78,1.41,2.52,4.75,6,5.9c2.27,0.75,5.04,0.49,7.05-0.76
	c3.04-1.9,3.67-5.67,4.48-13.43c1.48-14.22,2.2-21.51,1.24-30.48c-0.62-5.78-1.74-6.71-1.81-11.33c-0.06-4.32-1-8.61-0.98-12.93
	c0-0.23,0.01-1.01-0.45-1.76c-0.59-0.95-1.55-1.25-1.67-1.29c-0.1-0.03-1.37-0.38-2.48,0.38c-0.69,0.47-0.96,1.13-1.14,1.6
	c-0.81,2.04-0.05,4.19,0.07,4.57c1.05,3.28-0.29,4.76-0.07,19.14c0.07,4.35,0.18,3.76,0.29,8.43c0.3,13.42,0.44,23-2.81,24.05
	c-0.73,0.24-1.53,0.01-3.43-1.21c-5.9-3.78-9.14-8.63-12.25-13.4c-5.14-7.87-7.71-11.81-9.27-14.54c-2.54-4.46-2.75-5.62-6.73-12.95
	c-3.34-6.16-5.68-10.05-9.97-11.81c-1.11-0.45-3.08-1.23-4.89-0.32c-1.96,0.99-2.5,3.58-2.73,4.83c-2.74,14.73-2.73,63.3-5.14,70.44
	c-0.09,0.28-0.81,2.32-0.29,4.73C144.71,303.99,145.47,307.31,147.33,307.57z"/>
<path class="st0" d="M235.65,306.75c3.27-1.09,3.09,0.04,18.79,0.51c1.33,0.04,7.53,0.2,15.49-0.44c1.7-0.14,8.66-0.76,9.73-3.48
	c0.47-1.2,0.12-2.12,0.12-2.12c-0.28-0.72-0.89-1.18-1.71-1.6c-2.38-1.18-4.8-1.05-4.88-1.05c-10.57,0.58-12.77,0.43-13.67-0.81
	c-0.69-0.95-0.39-2.24-0.29-2.76c0.11-0.53-0.32-10.8-1.19-31.33c-0.47-11.14,1.24-22.57-1.32-33.43c-0.18-0.76-0.92-3.65,0.44-4.83
	c0.72-0.62,1.74-0.51,2.35-0.44c0,0,6.31,0.63,12-0.38c1.82-0.32,5.05-0.89,5.52-2.73c0.28-1.1-0.54-2.21-0.7-2.41
	c-1.19-1.53-3.34-1.71-4.25-1.78c-15.84-1.11-23.22,1.43-31.37-0.63c-1.12-0.28-3.85-1.06-5.97,0.32c-1.57,1.02-2.75,3.19-2.16,4.7
	c0.72,1.84,3.85,2.15,5.97,2.35c5.04,0.49,7.59-1.32,9.84,0.51c0.69,0.56,1.03,1.19,1.33,1.78c1.64,3.11,0.58,6.61,0.38,7.37
	c-2.33,8.91-0.28,40.24,0.06,44.89c0.42,5.72-1.49,11.56-0.48,17.21c0.07,0.4,0.37,1.9-0.44,2.76c-0.62,0.65-1.62,0.65-2.1,0.63
	c-5.8-0.13-9.47-0.29-12.54,0.48c-1.57,0.39-3.33,0.86-4.13,2.41c-0.74,1.45-0.5,3.55,0.63,4.44
	C232.46,307.91,234.67,307.07,235.65,306.75z"/>
<path class="st0" d="M325.81,215.1c-4.69,15.61,4.5,68.72,0.67,81.81c-0.14,0.47-1.05,3.49,0,6.76c0.31,0.95,1.05,3.28,2.95,3.81
	c1.66,0.47,3.25-0.71,3.71-1.05c1.97-1.45,2.62-3.73,2.95-5.33c1.12-5.32,0.02-9.13-0.57-14.57c-0.06-0.6-0.14-4.06-0.29-10.95
	c-0.24-11.11,0.21-22.25-0.67-33.33c-0.72-9.15,1.24-18.35,0.86-27.52c-0.01-0.3-0.06-1.3,0.57-1.95c1.11-1.13,3.51-0.39,4.67-0.1
	c4.81,1.21,5.17-1.18,13.9-1.19c3.32,0,6.49,0.34,10.81-0.67c1.12-0.26,2.61-0.68,3.19-1.9c0.66-1.41-0.18-3.29-1.1-4.33
	c-2.3-2.61-6.9-2.05-8.62-1.86c-10.04,1.13-20.19,0.58-30.29,0.9c-14.4,0.47-21.6,0.7-23.05,0.57c-2.61-0.24-9.18-0.95-11.86,2.33
	c-0.27,0.33-1.29,1.58-1,2.9c0.08,0.38,0.48,1.73,3.52,2.81c4.44,1.57,9.16,0.68,16.33-0.62c8.78-1.58,11.9-2.08,13.14-0.43
	C326.64,212.48,326,214.46,325.81,215.1z"/>
<path class="st0" d="M456.86,307.1c1.83,0.42,3.64-0.56,4.57-1.52c1.86-1.93,1.47-5.11,1.33-6.29c-1.39-12.31,2.71-14.01,0.19-28
	c-1.04-5.76-3.26-13.92-0.76-18.29c0.23-0.4,0.79-1.37,1.9-2.1c2.62-1.72,5.96-0.61,8.1-0.1c6.09,1.47,5.53-1.18,22.19-2
	c4.52-0.22,6.78-0.14,7.43-1.52c0.8-1.72-1.24-4.93-3.9-6.1c-2.74-1.19-5.67-0.03-6.76,0.38c-9.02,3.41-25.53,5.97-29.43,1.05
	c-0.94-1.19-0.12-1.52-0.48-7.81c-0.21-3.66-0.54-4.44-2.19-16.29c-0.84-6.06-1.2-9.08,0.38-10.1c0.95-0.61,2.18-0.23,2.67-0.1
	c4.52,1.27,7.68-0.46,17.05-1.14c13.93-1.02,21.78,1.73,28.57-2c0.9-0.49,3.35-1.84,3.24-3.43c-0.1-1.5-2.44-2.46-3.43-2.86
	c-6.05-2.42-13.25-0.72-17.05,0c-13.46,2.55-27.21,0.98-28.19,0.86c-3.56-0.43-10.34-1.5-14.95,1.71c-0.54,0.38-2.64,1.84-2.38,3.24
	c0.21,1.16,1.97,1.91,3.52,2.57c2.02,0.86,2.74,0.66,3.43,1.43c1.12,1.26,0.61,3.41,0.48,4c-1.85,8.43,0.68,17.3,0,25.9
	c-0.96,12.18,0.57,8.57,0,28.67c-0.27,9.36,1.28,18.79,0.19,28.1c0,0-0.29,2.5,0.83,7.71c0.15,0.7,0.46,1.99,1.56,2.98
	C455.79,306.84,456.69,307.06,456.86,307.1z"/>
<path class="st0" d="M544.19,305.95c7.28-0.07,17.23,0.44,27.33,0.95c2.75,0.14,7.48,0.45,13.9,0c4.87-0.34,7.78-0.92,9.24-3.14
	c0.92-1.4,1.32-3.56,0.38-4.86c-1.31-1.81-4.78-1.33-6.29-1.14c-20.32,2.57-36.61-1.83-44.86,0.29c-0.42,0.11-1.8,0.48-2.48-0.19
	c-1.06-1.05,0.26-3.95,0.57-4.67c2.34-5.49-0.49-10.24,0-22.38c0.18-4.43,1.07-16.67,0.86-24.38c-0.03-1.12-0.13-3.57-1.62-4.38
	c-1.06-0.57-2.58-0.18-3.52,0.57c-2.23,1.79-1.62,5.96-1.43,7.52c1.05,8.39,0.72,24.94-2.38,36.57c-1.18,4.43-2.93,8.75-0.86,12.86
	c0.95,1.88,2.84,4,5.43,5.24C540.96,305.99,543.24,305.96,544.19,305.95z"/>
<path class="st0" d="M672.92,255.44c-2.92-7.03-7.54-11.12-9.65-12.95c-2.34-2.02-9.47-7.68-19.81-8.76
	c-3.43-0.36-6.26-0.65-9.52,0.64c-5.37,2.11-7.85,6.9-11.05,13.33c-6.17,12.36-6.95,23.2-7.11,26.28c-0.2,3.8-0.44,9.17,1.27,15.88
	c1.37,5.37,3.23,12.68,9.65,16.76c3.22,2.04,6.41,2.53,8.25,2.79c6.02,0.86,10.72-0.83,13.59-1.9c7.64-2.85,12.26-7.66,14.73-10.29
	c2.41-2.56,7.78-8.42,10.41-17.9C674.76,275.43,677.26,265.89,672.92,255.44z M664.03,279.32c-3.23,8.36-8.34,12.63-16,19.05
	c-1.62,1.35-3.51,2.8-6.22,3.17c-3.83,0.53-7.21-1.38-9.27-2.54c0,0-2.94-1.66-5.08-3.94c-5.15-5.48-5.23-14.26-5.21-20.44
	c0,0,0.06-16.21,8.38-28.57c1.11-1.64,2.61-3.55,5.08-4.45c2.26-0.81,4.44-0.47,10.42,1.65c7.74,2.76,11.61,4.13,13.71,6.1
	c4.38,4.1,5.66,9.2,6.22,11.55C668,269.05,665.4,275.77,664.03,279.32z"/>
<path class="st0" d="M683.33,240.97c0.4,1.91,5.8,27.87,6.21,29.57c1.1,4.6,2.49,11.23,3.57,19.45c0,0,1.11,7.79,7.11,15.75
	c0.78,1.04,1.96,2.46,3.43,2.41c2.86-0.09,4.81-5.66,5.59-7.87c12.15-34.63,16.24-44.59,18.92-44.44c0.83,0.04,1.39,1.05,2.41,3.3
	c6.07,13.33,6.54,22.13,11.94,32.38c2.93,5.57,5.38,7.88,8.25,8.38c2.75,0.48,5.1-0.83,6.1-1.4c6.11-3.5,7.94-10.87,10.41-19.43
	c4.8-16.57,9.03-27.28,9.9-42.03c0.22-3.69,0.25-8-1.78-8.89c-1.57-0.69-3.99,0.86-5.21,2.54c-1.68,2.32-0.93,5.38-0.76,6.22
	c2.11,10.67-4.01,31.51-10.79,44.19c-1.52,2.85-2.42,7.56-4.83,7.75c-1.82,0.14-3.38-2.24-4.44-3.94
	c-6.27-10.05-9.68-15.52-11.56-26.03c-1.44-8.07-0.8-12.49-4.32-14.73c-1.8-1.15-4.34-1.5-6.35-0.63c-3.72,1.6-4.69,6.94-5.08,8.89
	c-2.85,14.38-12.47,39.61-17.27,39.49c-0.81-0.02-1.9-0.78-5.33-11.81c-3.37-10.84-11.41-39.32-11.13-45.32
	c0.01-0.27,0.09-1.56-0.67-2.76c-0.72-1.13-2.21-2.23-3.24-1.86c-1.38,0.5-1.43,3.52-1.48,5.9
	C682.9,238.93,683.33,240.97,683.33,240.97z"/>
</svg>
